<?xml version="1.0" encoding="utf-8"?>
<!-- Generator: Adobe Illustrator 27.8.1, SVG Export Plug-In . SVG Version: 6.00 Build 0)  -->
<svg version="1.1" id="Capa_1" xmlns="http://www.w3.org/2000/svg" xmlns:xlink="http://www.w3.org/1999/xlink" x="0px" y="0px"
	 viewBox="0 0 100 100" style="enable-background:new 0 0 100 100;" xml:space="preserve">
<style type="text/css">
	.st0{fill:#161D39;}
	.st1{fill:#DD7832;}
</style>
<g>
	<path class="st0" d="M49.1,7.6c23.2,0,42,18.8,42,42s-18.8,42-42,42s-42-18.8-42-42S26,7.6,49.1,7.6 M49.1,3.6
		c-25.4,0-46,20.6-46,46s20.6,46,46,46s46-20.6,46-46S74.5,3.6,49.1,3.6L49.1,3.6z"/>
</g>
<g>
	<circle class="st0" cx="49.1" cy="49.6" r="39.6"/>
</g>
<g>
	<g>
		<path class="st1" d="M47.1,26.6c4.1-3.3,8.7-4.5,13.9-2.6c6,2.2,9.8,8.6,8.8,15c-1.3,7.6-5.9,13.1-11.1,18.2
			c-1.8,1.8-3.9,3.4-5.9,4.9c-4.5,3.5-5.1,5.5-3.1,10.7c1.6,4.2,0.4,8.5-3.8,10.9c0.7-1.6,1.2-2.6,1.6-3.5c1.9-3.8,0.8-9.3-2.5-12.2
			c-0.2-0.2-0.6-0.5-0.6-0.6c1.2-4-2.7-4.5-4.5-6.1c-5.6-4.8-11-9.8-14.1-16.7c-3.2-7.1-2-13.9,3-18.1C34.2,21.9,40.5,22,47.1,26.6z
			"/>
		<path class="st1" d="M39.2,31.2c-2.3,2.8-4.4,5.5-6.7,8.4c-1.4-2.5-1-4.7,0.7-6.7C34.9,31.1,36.9,30.2,39.2,31.2z"/>
	</g>
</g>
</svg>
